<?xml version="1.0" encoding="UTF-8"?>
<svg id="Layer_2" data-name="Layer 2" xmlns="http://www.w3.org/2000/svg" viewBox="0 0 539.75 154.16">
  <defs>
    <style>
      .cls-1 {
        fill: none;
        stroke: #00ffd4;
        stroke-miterlimit: 10;
        stroke-width: 5px;
      }

      .cls-2 {
        fill: #00ffd4;
      }
    </style>
  </defs>
  <g id="Layer_1-2" data-name="Layer 1">
    <g>
      <rect class="cls-1" x="2.5" y="2.5" width="149.16" height="149.16"/>
      <path class="cls-2" d="M2.5,90.1V2.5h87.6v32.85l-54.75,54.75H2.5ZM68.2,24.4H24.4v43.8l43.8-43.8Z"/>
      <polygon class="cls-2" points="151.55 52.76 151.55 86.19 118.12 86.19 100.87 103.44 100.87 103.45 52.65 151.66 2.5 151.66 2.5 118.23 35.93 118.23 101.4 52.76 151.55 52.76"/>
      <g>
        <g>
          <path class="cls-2" d="M195.87,38.1h-9.54v-1.25c1.03-.46,2.06-.8,3.09-1.03l10.87-28.31h1.25l10.87,28.31c.57.11,1.14.24,1.7.39.56.14,1.08.36,1.57.64v1.25h-11.08v-1.25c.57-.23,1.16-.43,1.76-.6.6-.17,1.19-.31,1.76-.43l-2.91-7.86h-10.21l-2.82,7.86c1.2.17,2.43.52,3.69,1.03v1.25ZM195.85,25.73h8.63l-3.38-9.11-.81-3.69h-.09l-1.07,3.78-3.29,9.02Z"/>
          <path class="cls-2" d="M225.34,46.69h-9.54v-1.07c.97-.46,1.92-.8,2.84-1.03v-25.47l-2.84-.34v-1.12c.92-.4,1.85-.72,2.81-.97.96-.24,1.9-.44,2.81-.58h1.07v4.81h.04c.57-1.46,1.37-2.63,2.41-3.5,1.03-.87,2.38-1.31,4.04-1.31,2.55,0,4.52.85,5.93,2.53,1.4,1.69,2.1,4.44,2.1,8.25,0,1.8-.24,3.44-.71,4.9s-1.15,2.69-2.02,3.69c-.87,1-1.93,1.78-3.18,2.32-1.25.54-2.63.82-4.15.82-1.06,0-1.89-.06-2.49-.19-.6-.13-1.26-.35-1.98-.67v6.83c.46.06.92.16,1.37.32.46.16.95.39,1.46.71v1.07ZM227.62,18.77c-1.4,0-2.52.44-3.35,1.33-.83.89-1.42,2.11-1.76,3.65v12.03c.52.32,1.1.55,1.74.71.64.16,1.48.24,2.51.24.95,0,1.8-.24,2.56-.73.76-.49,1.4-1.17,1.93-2.06.53-.89.94-1.93,1.22-3.11.29-1.19.43-2.5.43-3.93,0-1.17-.09-2.26-.28-3.24-.19-.99-.49-1.85-.9-2.58-.42-.73-.96-1.3-1.63-1.7-.67-.4-1.5-.6-2.47-.6Z"/>
          <path class="cls-2" d="M248.45,46.69h-9.54v-1.07c.97-.46,1.92-.8,2.84-1.03v-25.47l-2.84-.34v-1.12c.92-.4,1.85-.72,2.81-.97.96-.24,1.9-.44,2.81-.58h1.07v4.81h.04c.57-1.46,1.37-2.63,2.41-3.5,1.03-.87,2.38-1.31,4.04-1.31,2.55,0,4.52.85,5.93,2.53,1.4,1.69,2.1,4.44,2.1,8.25,0,1.8-.24,3.44-.71,4.9-.47,1.46-1.15,2.69-2.02,3.69-.87,1-1.93,1.78-3.18,2.32-1.25.54-2.63.82-4.15.82-1.06,0-1.89-.06-2.49-.19-.6-.13-1.26-.35-1.98-.67v6.83c.46.06.92.16,1.37.32.46.16.95.39,1.46.71v1.07ZM250.73,18.77c-1.4,0-2.52.44-3.35,1.33-.83.89-1.42,2.11-1.76,3.65v12.03c.52.32,1.1.55,1.74.71.64.16,1.48.24,2.51.24.95,0,1.8-.24,2.56-.73.76-.49,1.4-1.17,1.93-2.06.53-.89.94-1.93,1.22-3.11.29-1.19.43-2.5.43-3.93,0-1.17-.09-2.26-.28-3.24-.19-.99-.49-1.85-.9-2.58-.42-.73-.96-1.3-1.63-1.7-.67-.4-1.5-.6-2.47-.6Z"/>
          <path class="cls-2" d="M271.99,38.1h-9.54v-1.07c.95-.46,1.89-.8,2.84-1.03V8.8l-3.26-.34v-1.12c.74-.34,1.68-.64,2.79-.9,1.12-.26,2.2-.47,3.26-.64h1.07v30.2c.95.23,1.89.57,2.84,1.03v1.07Z"/>
          <path class="cls-2" d="M283.72,38.1h-9.54v-1.07c.43-.23.87-.42,1.33-.58.46-.16.96-.31,1.5-.45v-16.88l-2.84-.34v-1.12c.83-.34,1.73-.64,2.71-.9.97-.26,1.95-.47,2.92-.64h1.07v19.89c.57.14,1.09.29,1.55.45.46.16.89.35,1.29.58v1.07ZM276.2,9.32c0-.77.25-1.39.75-1.85.5-.46,1.17-.69,2-.69s1.49.23,1.98.69c.49.46.73,1.07.73,1.85s-.24,1.38-.73,1.83c-.49.44-1.15.67-1.98.67s-1.5-.22-2-.67c-.5-.44-.75-1.05-.75-1.83Z"/>
          <path class="cls-2" d="M303.31,35.09c-.23.49-.59.95-1.07,1.37-.49.43-1.05.8-1.68,1.12-.63.32-1.32.57-2.06.75-.75.19-1.5.28-2.28.28-1.69,0-3.18-.27-4.47-.79s-2.36-1.29-3.22-2.28c-.86-.99-1.51-2.17-1.95-3.54-.44-1.37-.67-2.92-.67-4.64,0-3.67.84-6.46,2.53-8.38,1.69-1.92,4.08-2.88,7.17-2.88,1,0,1.99.14,2.96.41.97.27,1.84.72,2.6,1.35.76.63,1.37,1.47,1.85,2.51.47,1.05.71,2.34.71,3.89,0,.49-.02.98-.06,1.48-.04.5-.12,1.04-.24,1.61h-13.4c0,1.2.15,2.33.45,3.37.3,1.05.75,1.95,1.35,2.73.6.77,1.36,1.38,2.28,1.83.92.44,1.99.67,3.22.67,1,0,2.02-.14,3.05-.43,1.03-.29,1.8-.66,2.32-1.12l.6.69ZM295.45,17.99c-1.63,0-2.88.55-3.74,1.65-.86,1.1-1.37,3.04-1.55,5.82h9.45c.03-.26.05-.51.06-.75.01-.24.02-.48.02-.71,0-1.83-.34-3.29-1.03-4.38-.69-1.09-1.76-1.63-3.22-1.63Z"/>
          <path class="cls-2" d="M320.58,33.85c-.14.63-.39,1.23-.73,1.8-.34.57-.77,1.08-1.27,1.52-.5.44-1.07.79-1.72,1.05-.64.26-1.34.39-2.08.39-2.84,0-4.96-.9-6.36-2.71-1.4-1.8-2.1-4.61-2.1-8.42s.89-6.46,2.68-8.38c1.79-1.92,4.2-2.88,7.24-2.88,1.06,0,1.89.05,2.49.15.6.1,1.26.28,1.98.54v-8.12l-3.26-.34v-1.12c.83-.34,1.8-.64,2.9-.9,1.1-.26,2.15-.47,3.16-.64h1.07v29.86l2.84.34v.9c-.83.4-1.69.75-2.58,1.03-.89.29-1.76.49-2.62.6h-1.07l-.39-4.68h-.17ZM315.64,35.95c1.4,0,2.52-.44,3.35-1.33.83-.89,1.4-2.09,1.72-3.61v-12.11c-.49-.29-1.06-.49-1.72-.6-.66-.11-1.5-.17-2.53-.17-1.95,0-3.44.85-4.47,2.56-1.03,1.7-1.55,3.97-1.55,6.81,0,1.17.1,2.27.3,3.29.2,1.02.52,1.91.95,2.68s.97,1.38,1.61,1.83c.64.44,1.42.67,2.34.67Z"/>
          <path class="cls-2" d="M337.68,38.1v-1.25c1-.46,2.18-.8,3.52-1.03V10.35c-.66-.14-1.29-.31-1.89-.49-.6-.19-1.15-.38-1.63-.58v-1.25h4.38c.49,0,1.06-.01,1.72-.04.66-.03,1.34-.06,2.04-.11.7-.04,1.37-.09,2.02-.13.64-.04,1.18-.06,1.61-.06,4.87,0,8.61,1.3,11.23,3.91,2.62,2.61,3.93,6.3,3.93,11.08,0,2.26-.32,4.36-.97,6.29s-1.63,3.6-2.94,5c-1.32,1.4-2.99,2.51-5,3.31-2.02.8-4.4,1.2-7.15,1.2-.43,0-.92-.02-1.46-.06-.54-.04-1.12-.09-1.72-.13s-1.21-.09-1.83-.13c-.62-.04-1.2-.06-1.74-.06h-4.12ZM348.85,9.92c-.75,0-1.46,0-2.15.02-.69.01-1.23.06-1.63.15v26.03c.14.03.4.05.77.06.37.01.77.03,1.2.04.43.01.84.02,1.22.02h.84c1.98,0,3.65-.37,5.03-1.12,1.37-.74,2.5-1.74,3.37-2.99.87-1.25,1.51-2.69,1.91-4.32.4-1.63.6-3.35.6-5.16,0-1.4-.19-2.86-.58-4.36-.39-1.5-1.02-2.88-1.89-4.12-.87-1.25-2.03-2.27-3.46-3.07-1.43-.8-3.18-1.2-5.24-1.2Z"/>
          <path class="cls-2" d="M384.8,35.09c-.23.49-.59.95-1.07,1.37-.49.43-1.05.8-1.68,1.12-.63.32-1.32.57-2.06.75-.75.19-1.5.28-2.28.28-1.69,0-3.18-.27-4.47-.79s-2.36-1.29-3.22-2.28c-.86-.99-1.51-2.17-1.95-3.54-.44-1.37-.67-2.92-.67-4.64,0-3.67.84-6.46,2.53-8.38,1.69-1.92,4.08-2.88,7.17-2.88,1,0,1.99.14,2.96.41.97.27,1.84.72,2.6,1.35.76.63,1.37,1.47,1.85,2.51.47,1.05.71,2.34.71,3.89,0,.49-.02.98-.06,1.48-.04.5-.12,1.04-.24,1.61h-13.4c0,1.2.15,2.33.45,3.37.3,1.05.75,1.95,1.35,2.73.6.77,1.36,1.38,2.28,1.83.92.44,1.99.67,3.22.67,1,0,2.02-.14,3.05-.43,1.03-.29,1.8-.66,2.32-1.12l.6.69ZM376.94,17.99c-1.63,0-2.88.55-3.74,1.65-.86,1.1-1.37,3.04-1.55,5.82h9.45c.03-.26.05-.51.06-.75.01-.24.02-.48.02-.71,0-1.83-.34-3.29-1.03-4.38-.69-1.09-1.76-1.63-3.22-1.63Z"/>
          <path class="cls-2" d="M398.72,33.2c0-.8-.25-1.48-.75-2.04-.5-.56-1.14-1.08-1.91-1.57-.77-.49-1.6-.96-2.47-1.42-.87-.46-1.7-.99-2.47-1.61-.77-.62-1.41-1.32-1.91-2.13-.5-.8-.75-1.79-.75-2.96,0-.77.18-1.49.54-2.15.36-.66.84-1.22,1.44-1.7.6-.47,1.3-.84,2.11-1.12.8-.27,1.66-.41,2.58-.41,1.55,0,2.81.09,3.8.26.99.17,1.94.42,2.86.73-.11.92-.25,1.84-.41,2.77-.16.93-.38,1.88-.67,2.86h-1.07l-1.63-4.38c-.34-.14-.73-.24-1.16-.28-.43-.04-.87-.06-1.33-.06-.52,0-.97.09-1.35.28-.39.19-.72.42-.99.71-.27.29-.48.62-.62.99-.14.37-.22.75-.22,1.12,0,.77.25,1.44.75,2,.5.56,1.14,1.07,1.91,1.55s1.6.94,2.47,1.4c.87.46,1.7.97,2.47,1.55.77.57,1.41,1.24,1.91,2,.5.76.75,1.67.75,2.73,0,.97-.21,1.85-.62,2.62-.42.77-.99,1.43-1.72,1.98-.73.54-1.58.97-2.53,1.27-.96.3-1.98.45-3.07.45-1.23,0-2.36-.11-3.39-.32s-2.1-.52-3.22-.92c.06-1.03.19-2.03.39-2.99.2-.96.46-1.88.77-2.77h1.07l1.89,4.68c.31.23.69.36,1.14.39.44.03.85.04,1.22.04,1.26,0,2.28-.34,3.05-1.03.77-.69,1.16-1.52,1.16-2.49Z"/>
          <path class="cls-2" d="M414.74,38.1h-9.54v-1.07c.43-.23.87-.42,1.33-.58.46-.16.96-.31,1.5-.45v-16.88l-2.84-.34v-1.12c.83-.34,1.73-.64,2.71-.9.97-.26,1.95-.47,2.92-.64h1.07v19.89c.57.14,1.09.29,1.55.45.46.16.89.35,1.29.58v1.07ZM407.23,9.32c0-.77.25-1.39.75-1.85.5-.46,1.17-.69,2-.69s1.49.23,1.98.69c.49.46.73,1.07.73,1.85s-.24,1.38-.73,1.83c-.49.44-1.15.67-1.98.67s-1.5-.22-2-.67c-.5-.44-.75-1.05-.75-1.83Z"/>
          <path class="cls-2" d="M425.78,16.1c1.55,0,2.85.15,3.91.45,1.06.3,1.95.77,2.66,1.4,1.69-1.15,3.45-1.98,5.28-2.49.23.32.39.7.49,1.16.1.46.15.89.15,1.29l-.56,1.03h-4.51c.72,1.03,1.07,2.39,1.07,4.08,0,2.06-.72,3.74-2.17,5.03-1.45,1.29-3.56,1.93-6.34,1.93-.54,0-.99-.01-1.33-.04-.34-.03-.73-.07-1.16-.13-.14.26-.31.54-.49.86-.19.32-.28.64-.28.99,0,.57.33,1.02.99,1.35.66.33,1.48.62,2.47.88s2.06.52,3.22.79c1.16.27,2.24.64,3.24,1.12,1,.47,1.84,1.09,2.51,1.85.67.76,1.02,1.74,1.05,2.94.03,1.03-.21,1.96-.71,2.79-.5.83-1.2,1.52-2.08,2.08-.89.56-1.95.99-3.2,1.29-1.25.3-2.61.45-4.1.45-3.12,0-5.48-.53-7.07-1.59-1.59-1.06-2.38-2.39-2.38-4,0-.77.12-1.45.37-2.02.24-.57.59-1.07,1.05-1.5.46-.43,1.03-.81,1.72-1.14.69-.33,1.47-.64,2.36-.92-.63-.29-1.15-.68-1.57-1.18-.42-.5-.62-1.11-.62-1.83,0-.66.28-1.31.84-1.95.56-.64,1.12-1.15,1.7-1.53-1.63-.43-2.89-1.25-3.76-2.45-.87-1.2-1.31-2.56-1.31-4.08,0-.97.19-1.88.56-2.73.37-.84.92-1.58,1.63-2.21.72-.63,1.6-1.12,2.66-1.46,1.06-.34,2.29-.52,3.69-.52ZM432.14,41.58c0-.92-.31-1.65-.92-2.19-.62-.54-1.38-.99-2.3-1.33-.92-.34-1.9-.63-2.96-.86-1.06-.23-2.05-.49-2.96-.77-1.09.66-1.8,1.35-2.15,2.08s-.52,1.48-.52,2.26c0,1.52.54,2.66,1.63,3.42,1.09.76,2.66,1.14,4.73,1.14,1.06,0,1.94-.1,2.64-.3.7-.2,1.26-.47,1.68-.79.41-.33.71-.72.88-1.18.17-.46.26-.95.26-1.46ZM421.1,23.02c0,.69.08,1.34.24,1.95.16.62.42,1.15.77,1.61.36.46.84.82,1.44,1.1.6.27,1.35.41,2.23.41,1.66,0,2.85-.49,3.57-1.46.72-.97,1.07-2.18,1.07-3.61,0-1.55-.35-2.77-1.05-3.67-.7-.9-1.9-1.35-3.59-1.35s-2.96.44-3.65,1.31c-.69.87-1.03,2.11-1.03,3.72Z"/>
          <path class="cls-2" d="M461.35,38.1h-9.24v-1.07c.77-.4,1.62-.74,2.53-1.03v-10.18c0-2.18-.32-3.89-.95-5.16-.63-1.26-1.78-1.89-3.44-1.89-.72,0-1.38.13-2,.39-.62.26-1.16.61-1.63,1.05-.47.44-.88.95-1.22,1.5s-.62,1.14-.82,1.74v12.54c.89.17,1.75.52,2.58,1.03v1.07h-9.28v-1.07c.72-.37,1.66-.72,2.84-1.03v-16.88l-2.84-.34v-1.12c.74-.31,1.6-.6,2.58-.86.97-.26,1.99-.49,3.05-.69h1.07v4.81h.04c.6-1.32,1.47-2.45,2.6-3.39,1.13-.95,2.5-1.42,4.1-1.42,1.15,0,2.17.14,3.07.41.9.27,1.65.75,2.26,1.44s1.06,1.61,1.37,2.77c.31,1.16.47,2.63.47,4.4v10.87c1.15.2,2.09.54,2.84,1.03v1.07Z"/>
          <path class="cls-2" d="M211.12,80.46c-.6-.4-1.36-.89-2.28-1.48-.92-.59-1.92-1.41-3.01-2.47-.4.54-.9,1.08-1.5,1.61-.6.53-1.31,1.01-2.13,1.44-.82.43-1.73.77-2.73,1.03-1,.26-2.09.39-3.26.39-1.52,0-2.89-.23-4.12-.69-1.23-.46-2.28-1.07-3.14-1.85-.86-.77-1.52-1.66-2-2.66-.47-1-.71-2.05-.71-3.14,0-1.4.26-2.67.77-3.8.52-1.13,1.13-2.12,1.85-2.96.72-.84,1.46-1.56,2.23-2.15.77-.59,1.42-1.07,1.93-1.44-.83-.92-1.53-1.99-2.11-3.22-.57-1.23-.86-2.38-.86-3.44,0-.72.14-1.42.43-2.13.29-.7.71-1.32,1.27-1.85.56-.53,1.25-.96,2.06-1.29.82-.33,1.74-.49,2.77-.49,1.89,0,3.42.41,4.58,1.22,1.16.82,1.74,2,1.74,3.54,0,.95-.17,1.83-.49,2.64-.33.82-.75,1.57-1.27,2.26-.52.69-1.1,1.32-1.74,1.89-.64.57-1.28,1.1-1.91,1.59,1.17,1.46,2.53,2.96,4.08,4.51,1.55,1.55,3.18,3.09,4.9,4.64.23-.31.52-.84.86-1.59.34-.74.67-1.62.97-2.62.3-1,.54-2.1.73-3.29.19-1.19.24-2.37.15-3.54-.86-.17-1.7-.52-2.53-1.03v-1.12h8.72v1.12c-.77.49-1.72.83-2.84,1.03-.26,1.69-.59,3.22-.99,4.6-.4,1.37-.82,2.59-1.25,3.63-.43,1.05-.84,1.93-1.22,2.66-.39.73-.69,1.27-.92,1.61,1.09.89,2.15,1.71,3.2,2.47,1.05.76,2.21,1.51,3.5,2.26l2.36,1.03v1.07h-6.1ZM204.38,75.18c-.86-.77-1.8-1.68-2.81-2.73-1.02-1.05-2-2.11-2.94-3.2-.95-1.09-1.82-2.13-2.62-3.14-.8-1-1.43-1.83-1.89-2.49-1.26,1.2-2.17,2.37-2.73,3.5-.56,1.13-.84,2.46-.84,3.97,0,1.09.18,2.1.54,3.03.36.93.86,1.74,1.49,2.43.63.69,1.4,1.22,2.29,1.61.89.39,1.86.58,2.9.58,1.3,0,2.51-.29,3.63-.88,1.12-.59,2.12-1.48,2.98-2.69ZM193.29,55.47c0,.51.1,1.06.3,1.64.2.58.47,1.16.79,1.73.33.57.69,1.12,1.07,1.66.39.54.77,1.02,1.14,1.45,1.03-.85,1.87-1.84,2.51-2.96.64-1.12.89-2.45.75-3.98-.06-.91-.34-1.68-.86-2.3-.52-.62-1.33-.94-2.45-.94-.63,0-1.15.11-1.57.32-.42.21-.75.5-1.01.85s-.44.75-.54,1.19c-.1.44-.15.89-.15,1.34Z"/>
          <path class="cls-2" d="M232.99,77.5c.34.34.79.64,1.33.88.54.24,1.36.37,2.45.37.92,0,1.78-.12,2.58-.37.8-.24,1.5-.6,2.08-1.07.59-.47,1.05-1.05,1.4-1.72.34-.67.52-1.44.52-2.3,0-1.15-.35-2.11-1.05-2.88-.7-.77-1.58-1.46-2.62-2.06-1.05-.6-2.18-1.19-3.42-1.76-1.23-.57-2.37-1.25-3.42-2.04-1.05-.79-1.92-1.73-2.62-2.84-.7-1.1-1.05-2.48-1.05-4.15,0-1.2.21-2.28.64-3.22s1.04-1.75,1.83-2.41c.79-.66,1.72-1.17,2.81-1.52,1.09-.36,2.3-.54,3.65-.54,1.75,0,3.34.14,4.79.41,1.45.27,2.58.61,3.42,1.01,0,.49-.04,1.05-.11,1.7-.07.64-.16,1.31-.26,2-.1.69-.21,1.35-.32,2-.11.64-.23,1.21-.34,1.7h-1.12l-1.72-5.89c-.52-.23-1.18-.4-1.97-.52-.79-.11-1.64-.17-2.54-.17-1.47,0-2.66.41-3.56,1.22-.9.82-1.34,1.95-1.34,3.42,0,1.17.35,2.16,1.06,2.96.71.8,1.59,1.52,2.66,2.15,1.07.63,2.21,1.24,3.44,1.83,1.22.59,2.37,1.27,3.44,2.04,1.07.77,1.95,1.69,2.66,2.75.71,1.06,1.06,2.38,1.06,3.95,0,1.29-.24,2.46-.71,3.52-.47,1.06-1.15,1.96-2.04,2.71-.89.75-1.98,1.32-3.26,1.72-1.29.4-2.75.6-4.38.6-1.8,0-3.42-.21-4.85-.64-1.43-.43-2.45-.89-3.05-1.37.03-.49.08-1.07.15-1.76.07-.69.16-1.4.26-2.13.1-.73.21-1.44.32-2.13.11-.69.23-1.27.34-1.76h1.12l1.76,6.32Z"/>
          <path class="cls-2" d="M249.01,60.06c1.09-.71,2.23-1.21,3.44-1.51v-3.65c.37-.29.81-.57,1.31-.84.5-.27.99-.51,1.48-.71h1.07v5.63h6.44v2.23h-6.44v12.4c0,1.71.27,2.92.82,3.63.54.71,1.36,1.07,2.45,1.07.52,0,1.16-.04,1.93-.11.77-.07,1.43-.21,1.98-.41l.3.64c-.23.26-.55.53-.97.82-.42.29-.89.56-1.42.82-.53.26-1.11.47-1.74.64-.63.17-1.27.26-1.93.26-1.72,0-3.03-.49-3.93-1.45-.9-.97-1.35-2.54-1.35-4.71v-13.6h-3.44v-1.15Z"/>
          <path class="cls-2" d="M273.58,62.2c-.32.17-.71.52-1.18,1.05-.47.53-.9,1.31-1.27,2.34v12.76c.57.06,1.15.17,1.72.32.57.16,1.15.39,1.72.71v1.07h-10.14v-1.07c.52-.29,1-.5,1.46-.64.46-.14.92-.27,1.37-.39v-16.88l-2.84-.34v-1.12c.92-.4,1.86-.72,2.84-.97.97-.24,1.9-.44,2.79-.58h1.07v4.55h.17c.26-.57.62-1.15,1.1-1.72.47-.57,1.02-1.09,1.63-1.55.62-.46,1.29-.81,2.02-1.05.73-.24,1.48-.32,2.26-.24.2.37.38.78.54,1.22.16.44.31.91.45,1.4v1.12h-5.71Z"/>
          <path class="cls-2" d="M296.01,74.83c0,.63.01,1.17.04,1.63.03.46.06.95.09,1.46l2.96.43v.9c-.72.37-1.51.7-2.38.99-.87.29-1.71.5-2.51.64h-1.07c-.29-.66-.46-1.38-.52-2.17-.06-.79-.1-1.65-.13-2.6h-.21c-.11.57-.34,1.15-.67,1.74-.33.59-.76,1.11-1.29,1.57-.53.46-1.15.83-1.87,1.12-.72.29-1.53.43-2.45.43-1.75,0-3.17-.53-4.27-1.59-1.1-1.06-1.65-2.45-1.65-4.17,0-1.32.26-2.4.79-3.24.53-.84,1.31-1.51,2.34-2,1.03-.49,2.31-.84,3.82-1.05,1.52-.21,3.28-.38,5.28-.49.11-1.23.15-2.34.11-3.33-.04-.99-.2-1.83-.47-2.53-.27-.7-.67-1.25-1.2-1.63-.53-.39-1.22-.58-2.08-.58-.4,0-.85.02-1.35.06-.5.04-1,.17-1.48.37l-2.02,5.16h-1.12c-.29-.86-.54-1.75-.75-2.66-.22-.92-.35-1.82-.41-2.71,1.09-.66,2.3-1.17,3.63-1.55,1.33-.37,2.81-.56,4.45-.56,1.46,0,2.63.21,3.5.62.87.42,1.54.95,2,1.61.46.66.76,1.39.9,2.19.14.8.21,1.6.21,2.41,0,1.72-.04,3.37-.11,4.96-.07,1.59-.11,3.11-.11,4.58ZM287.71,78.31c.72,0,1.35-.14,1.89-.43.54-.29,1-.63,1.37-1.03.37-.4.67-.81.9-1.22.23-.41.39-.77.47-1.05v-4.51c-1.66,0-3.02.09-4.08.26-1.06.17-1.89.44-2.49.82-.6.37-1.02.84-1.25,1.4-.23.56-.34,1.2-.34,1.91,0,1.23.32,2.18.95,2.86.63.67,1.49,1.01,2.58,1.01Z"/>
          <path class="cls-2" d="M299.53,60.06c1.09-.71,2.23-1.21,3.44-1.51v-3.65c.37-.29.81-.57,1.31-.84.5-.27.99-.51,1.48-.71h1.07v5.63h6.44v2.23h-6.44v12.4c0,1.71.27,2.92.82,3.63.54.71,1.36,1.07,2.45,1.07.52,0,1.16-.04,1.93-.11.77-.07,1.43-.21,1.98-.41l.3.64c-.23.26-.55.53-.97.82-.42.29-.89.56-1.42.82-.53.26-1.11.47-1.74.64-.63.17-1.27.26-1.93.26-1.72,0-3.03-.49-3.93-1.45-.9-.97-1.35-2.54-1.35-4.71v-13.6h-3.44v-1.15Z"/>
          <path class="cls-2" d="M332.78,77.45c-.23.49-.59.95-1.07,1.37-.49.43-1.05.8-1.68,1.12-.63.32-1.32.57-2.06.75-.75.19-1.5.28-2.28.28-1.69,0-3.18-.27-4.47-.79s-2.36-1.29-3.22-2.28c-.86-.99-1.51-2.17-1.95-3.54-.44-1.37-.67-2.92-.67-4.64,0-3.67.84-6.46,2.53-8.38,1.69-1.92,4.08-2.88,7.17-2.88,1,0,1.99.14,2.96.41.97.27,1.84.72,2.6,1.35.76.63,1.37,1.47,1.85,2.51.47,1.05.71,2.34.71,3.89,0,.49-.02.98-.06,1.48-.04.5-.12,1.04-.24,1.61h-13.4c0,1.2.15,2.33.45,3.37.3,1.05.75,1.95,1.35,2.73.6.77,1.36,1.38,2.28,1.83.92.44,1.99.67,3.22.67,1,0,2.02-.14,3.05-.43,1.03-.29,1.8-.66,2.32-1.12l.6.69ZM324.92,60.36c-1.63,0-2.88.55-3.74,1.65-.86,1.1-1.37,3.04-1.55,5.82h9.45c.03-.26.05-.51.06-.75.01-.24.02-.48.02-.71,0-1.83-.34-3.29-1.03-4.38-.69-1.09-1.76-1.63-3.22-1.63Z"/>
          <path class="cls-2" d="M344.63,58.47c1.55,0,2.85.15,3.91.45,1.06.3,1.95.77,2.66,1.4,1.69-1.15,3.45-1.98,5.28-2.49.23.32.39.7.49,1.16.1.46.15.89.15,1.29l-.56,1.03h-4.51c.72,1.03,1.07,2.39,1.07,4.08,0,2.06-.72,3.74-2.17,5.03-1.45,1.29-3.56,1.93-6.34,1.93-.54,0-.99-.01-1.33-.04-.34-.03-.73-.07-1.16-.13-.14.26-.31.54-.49.86-.19.32-.28.64-.28.99,0,.57.33,1.02.99,1.35.66.33,1.48.62,2.47.88s2.06.52,3.22.79c1.16.27,2.24.64,3.24,1.12,1,.47,1.84,1.09,2.51,1.85.67.76,1.02,1.74,1.05,2.94.03,1.03-.21,1.96-.71,2.79-.5.83-1.2,1.52-2.08,2.08-.89.56-1.95.99-3.2,1.29-1.25.3-2.61.45-4.1.45-3.12,0-5.48-.53-7.07-1.59-1.59-1.06-2.38-2.39-2.38-4,0-.77.12-1.45.37-2.02.24-.57.59-1.07,1.05-1.5.46-.43,1.03-.81,1.72-1.14.69-.33,1.47-.64,2.36-.92-.63-.29-1.15-.68-1.57-1.18-.42-.5-.62-1.11-.62-1.83,0-.66.28-1.31.84-1.95.56-.64,1.12-1.15,1.7-1.53-1.63-.43-2.89-1.25-3.76-2.45-.87-1.2-1.31-2.56-1.31-4.08,0-.97.19-1.88.56-2.73.37-.84.92-1.58,1.63-2.21.72-.63,1.6-1.12,2.66-1.46,1.06-.34,2.29-.52,3.69-.52ZM350.99,83.94c0-.92-.31-1.65-.92-2.19-.62-.54-1.38-.99-2.3-1.33-.92-.34-1.9-.63-2.96-.86-1.06-.23-2.05-.49-2.96-.77-1.09.66-1.8,1.35-2.15,2.08s-.52,1.48-.52,2.26c0,1.52.54,2.66,1.63,3.42,1.09.76,2.66,1.14,4.73,1.14,1.06,0,1.94-.1,2.64-.3.7-.2,1.26-.47,1.68-.79.41-.33.71-.72.88-1.18.17-.46.26-.95.26-1.46ZM339.95,65.38c0,.69.08,1.34.24,1.95.16.62.42,1.15.77,1.61.36.46.84.82,1.44,1.1.6.27,1.35.41,2.23.41,1.66,0,2.85-.49,3.57-1.46.72-.97,1.07-2.18,1.07-3.61,0-1.55-.35-2.77-1.05-3.67-.7-.9-1.9-1.35-3.59-1.35s-2.96.44-3.65,1.31c-.69.87-1.03,2.11-1.03,3.72Z"/>
          <path class="cls-2" d="M357.22,61.13c-.43-.11-.82-.26-1.18-.43-.36-.17-.72-.37-1.1-.6v-1.12h9.02v1.07c-.6.4-1.42.76-2.45,1.07l5.46,12.72.81,2.66h.09l.64-2.71,4.08-12.67c-.86-.17-1.65-.52-2.36-1.03v-1.12h7.35v1.12c-.6.4-1.42.75-2.45,1.03l-6.7,19.33c-.69,1.83-1.34,3.31-1.95,4.45-.62,1.13-1.23,2.03-1.85,2.68-.62.66-1.25,1.14-1.89,1.44-.64.3-1.34.52-2.08.67-.32-.54-.59-1.15-.84-1.8-.24-.66-.45-1.29-.62-1.89l.56-1.03h4.47c.17-.23.32-.45.45-.67.13-.21.26-.48.41-.79.14-.32.3-.72.47-1.2.17-.49.37-1.1.6-1.85l-8.94-19.33Z"/>
          <path class="cls-2" d="M398.2,80.46h-11v-1.25c1.12-.52,2.26-.86,3.44-1.03v-25.47c-.57-.11-1.15-.26-1.72-.45-.57-.19-1.15-.39-1.72-.62v-1.25h11v1.25c-.52.23-1.07.44-1.68.62-.6.19-1.19.34-1.76.45v25.47c.6.11,1.2.26,1.8.43.6.17,1.15.37,1.63.6v1.25Z"/>
          <path class="cls-2" d="M423.85,80.46h-9.24v-1.07c.77-.4,1.62-.74,2.53-1.03v-10.18c0-2.18-.32-3.89-.95-5.16-.63-1.26-1.78-1.89-3.44-1.89-.72,0-1.38.13-2,.39-.62.26-1.16.61-1.63,1.05-.47.44-.88.95-1.22,1.5s-.62,1.14-.82,1.74v12.54c.89.17,1.75.52,2.58,1.03v1.07h-9.28v-1.07c.72-.37,1.66-.72,2.84-1.03v-16.88l-2.84-.34v-1.12c.74-.31,1.6-.6,2.58-.86.97-.26,1.99-.49,3.05-.69h1.07v4.81h.04c.6-1.32,1.47-2.45,2.6-3.39,1.13-.95,2.5-1.42,4.1-1.42,1.15,0,2.17.14,3.07.41.9.27,1.65.75,2.26,1.44s1.06,1.61,1.37,2.77c.31,1.16.47,2.63.47,4.4v10.87c1.15.2,2.09.54,2.84,1.03v1.07Z"/>
          <path class="cls-2" d="M436.05,75.56c0-.8-.25-1.48-.75-2.04-.5-.56-1.14-1.08-1.91-1.57-.77-.49-1.6-.96-2.47-1.42-.87-.46-1.7-.99-2.47-1.61-.77-.62-1.41-1.32-1.91-2.13-.5-.8-.75-1.79-.75-2.96,0-.77.18-1.49.54-2.15.36-.66.84-1.22,1.44-1.7.6-.47,1.3-.84,2.11-1.12.8-.27,1.66-.41,2.58-.41,1.55,0,2.81.09,3.8.26.99.17,1.94.42,2.86.73-.11.92-.25,1.84-.41,2.77-.16.93-.38,1.88-.67,2.86h-1.07l-1.63-4.38c-.34-.14-.73-.24-1.16-.28-.43-.04-.87-.06-1.33-.06-.52,0-.97.09-1.35.28-.39.19-.72.42-.99.71-.27.29-.48.62-.62.99-.14.37-.22.75-.22,1.12,0,.77.25,1.44.75,2,.5.56,1.14,1.07,1.91,1.55s1.6.94,2.47,1.4c.87.46,1.7.97,2.47,1.55.77.57,1.41,1.24,1.91,2,.5.76.75,1.67.75,2.73,0,.97-.21,1.85-.62,2.62-.42.77-.99,1.43-1.72,1.98-.73.54-1.58.97-2.53,1.27-.96.3-1.98.45-3.07.45-1.23,0-2.36-.11-3.39-.32s-2.1-.52-3.22-.92c.06-1.03.19-2.03.39-2.99.2-.96.46-1.88.77-2.77h1.07l1.89,4.68c.31.23.69.36,1.14.39.44.03.85.04,1.22.04,1.26,0,2.28-.34,3.05-1.03.77-.69,1.16-1.52,1.16-2.49Z"/>
          <path class="cls-2" d="M441.42,60.06c1.09-.71,2.23-1.21,3.44-1.51v-3.65c.37-.29.81-.57,1.31-.84.5-.27.99-.51,1.48-.71h1.07v5.63h6.44v2.23h-6.44v12.4c0,1.71.27,2.92.82,3.63.54.71,1.36,1.07,2.45,1.07.52,0,1.16-.04,1.93-.11.77-.07,1.43-.21,1.98-.41l.3.64c-.23.26-.55.53-.97.82-.42.29-.89.56-1.42.82-.53.26-1.11.47-1.74.64-.63.17-1.27.26-1.93.26-1.72,0-3.03-.49-3.93-1.45-.9-.97-1.35-2.54-1.35-4.71v-13.6h-3.44v-1.15Z"/>
          <path class="cls-2" d="M466.81,80.46h-9.54v-1.07c.43-.23.87-.42,1.33-.58.46-.16.96-.31,1.5-.45v-16.88l-2.84-.34v-1.12c.83-.34,1.73-.64,2.71-.9.97-.26,1.95-.47,2.92-.64h1.07v19.89c.57.14,1.09.29,1.55.45.46.16.89.35,1.29.58v1.07ZM459.29,51.68c0-.77.25-1.39.75-1.85.5-.46,1.17-.69,2-.69s1.49.23,1.98.69c.49.46.73,1.07.73,1.85s-.24,1.38-.73,1.83c-.49.44-1.15.67-1.98.67s-1.5-.22-2-.67c-.5-.44-.75-1.05-.75-1.83Z"/>
          <path class="cls-2" d="M467.88,60.06c1.09-.71,2.23-1.21,3.44-1.51v-3.65c.37-.29.81-.57,1.31-.84.5-.27.99-.51,1.48-.71h1.07v5.63h6.44v2.23h-6.44v12.4c0,1.71.27,2.92.82,3.63.54.71,1.36,1.07,2.45,1.07.52,0,1.16-.04,1.93-.11.77-.07,1.43-.21,1.98-.41l.3.64c-.23.26-.55.53-.97.82-.42.29-.89.56-1.42.82-.53.26-1.11.47-1.74.64-.63.17-1.27.26-1.93.26-1.72,0-3.03-.49-3.93-1.45-.9-.97-1.35-2.54-1.35-4.71v-13.6h-3.44v-1.15Z"/>
          <path class="cls-2" d="M485.28,71.96c0-1.8.04-3.57.13-5.31.09-1.73.13-3.46.13-5.18l-2.84-.34v-1.12c.92-.34,1.85-.64,2.81-.9.96-.26,1.9-.47,2.81-.64h1.07c0,2.15-.04,4.28-.13,6.4-.09,2.12-.13,4.22-.13,6.32,0,1.12.06,2.12.19,3.01.13.89.36,1.63.69,2.23.33.6.78,1.07,1.35,1.4.57.33,1.3.49,2.19.49,1.29,0,2.37-.47,3.24-1.4.87-.93,1.55-2.14,2.04-3.63v-11.81l-2.79-.34v-1.12c.89-.34,1.81-.64,2.77-.9.96-.26,1.9-.47,2.81-.64h1.07v19.55l2.84.34v.9c-.83.37-1.67.7-2.51.99-.85.29-1.73.5-2.64.64h-1.07l-.3-5.11h-.17c-.14.6-.39,1.21-.75,1.83-.36.62-.82,1.17-1.4,1.68-.57.5-1.22.91-1.95,1.22-.73.31-1.52.47-2.38.47-1.15,0-2.16-.14-3.03-.41-.87-.27-1.61-.75-2.21-1.44s-1.06-1.61-1.37-2.77c-.32-1.16-.47-2.63-.47-4.4Z"/>
          <path class="cls-2" d="M506.07,60.06c1.09-.71,2.23-1.21,3.44-1.51v-3.65c.37-.29.81-.57,1.31-.84.5-.27.99-.51,1.48-.71h1.07v5.63h6.44v2.23h-6.44v12.4c0,1.71.27,2.92.82,3.63.54.71,1.36,1.07,2.45,1.07.52,0,1.16-.04,1.93-.11.77-.07,1.43-.21,1.98-.41l.3.64c-.23.26-.55.53-.97.82-.42.29-.89.56-1.42.82-.53.26-1.11.47-1.74.64-.63.17-1.27.26-1.93.26-1.72,0-3.03-.49-3.93-1.45-.9-.97-1.35-2.54-1.35-4.71v-13.6h-3.44v-1.15Z"/>
          <path class="cls-2" d="M539.32,77.45c-.23.49-.59.95-1.07,1.37-.49.43-1.05.8-1.68,1.12-.63.32-1.32.57-2.06.75-.75.19-1.5.28-2.28.28-1.69,0-3.18-.27-4.47-.79s-2.36-1.29-3.22-2.28c-.86-.99-1.51-2.17-1.95-3.54-.44-1.37-.67-2.92-.67-4.64,0-3.67.84-6.46,2.53-8.38,1.69-1.92,4.08-2.88,7.17-2.88,1,0,1.99.14,2.96.41.97.27,1.84.72,2.6,1.35.76.63,1.37,1.47,1.85,2.51.47,1.05.71,2.34.71,3.89,0,.49-.02.98-.06,1.48-.04.5-.12,1.04-.24,1.61h-13.4c0,1.2.15,2.33.45,3.37.3,1.05.75,1.95,1.35,2.73.6.77,1.36,1.38,2.28,1.83.92.44,1.99.67,3.22.67,1,0,2.02-.14,3.05-.43,1.03-.29,1.8-.66,2.32-1.12l.6.69ZM531.46,60.36c-1.63,0-2.88.55-3.74,1.65-.86,1.1-1.37,3.04-1.55,5.82h9.45c.03-.26.05-.51.06-.75.01-.24.02-.48.02-.71,0-1.83-.34-3.29-1.03-4.38-.69-1.09-1.76-1.63-3.22-1.63Z"/>
          <path class="cls-2" d="M201.07,149.08h-14.74v-2.27c.64-.4,1.32-.75,2.06-1.04.74-.3,1.46-.53,2.18-.69l15.39-38.48h4.42l14.98,38.48c.8.16,1.59.39,2.39.69.8.3,1.49.65,2.09,1.04v2.27h-18.68v-2.27c.76-.36,1.57-.7,2.45-1.01.87-.32,1.71-.56,2.51-.72l-3.46-9.49h-13.25l-3.52,9.49c1.83.24,3.56.82,5.19,1.73v2.27ZM200.83,131.71h10.56l-3.88-11.4-1.13-5.13h-.12l-1.31,5.25-4.12,11.28Z"/>
          <path class="cls-2" d="M231.02,149.08v-2.27c.68-.4,1.43-.75,2.27-1.04.84-.3,1.71-.53,2.63-.69v-33.77c-.92-.2-1.8-.45-2.66-.75-.86-.3-1.6-.63-2.24-.98v-2.27h6.92c.68,0,1.51-.02,2.51-.06.99-.04,2.03-.09,3.1-.15,1.07-.06,2.12-.12,3.13-.18s1.88-.09,2.6-.09c3.46,0,6.55.46,9.28,1.37,2.72.92,5.03,2.25,6.92,4,1.89,1.75,3.34,3.92,4.36,6.5,1.01,2.59,1.52,5.57,1.52,8.95s-.48,6.3-1.43,9.01c-.95,2.71-2.39,5.01-4.3,6.92-1.91,1.91-4.33,3.39-7.25,4.45-2.92,1.05-6.35,1.58-10.29,1.58-.52,0-1.21-.03-2.09-.09-.88-.06-1.81-.12-2.8-.18-.99-.06-1.99-.12-2.98-.18-.99-.06-1.87-.09-2.63-.09h-6.56ZM248.5,110.71c-.72,0-1.43.02-2.15.06-.72.04-1.33.1-1.85.18v34.55c.16.04.44.07.84.09.4.02.81.04,1.22.06.42.02.82.04,1.22.06.4.02.7.03.89.03,2.31,0,4.27-.48,5.88-1.43,1.61-.95,2.93-2.25,3.97-3.88,1.03-1.63,1.79-3.54,2.27-5.73.48-2.19.72-4.51.72-6.98,0-2.19-.25-4.3-.75-6.32-.5-2.03-1.26-3.84-2.3-5.43-1.03-1.59-2.38-2.86-4.03-3.82-1.65-.95-3.63-1.43-5.94-1.43Z"/>
          <path class="cls-2" d="M283.11,144.12c.44.44,1.05.85,1.85,1.22.8.38,1.85.57,3.16.57,2.19,0,4.01-.57,5.46-1.7,1.45-1.13,2.18-2.71,2.18-4.74,0-1.47-.47-2.7-1.4-3.7-.93-.99-2.12-1.91-3.55-2.74-1.43-.84-2.96-1.66-4.59-2.48-1.63-.81-3.16-1.78-4.59-2.89-1.43-1.11-2.62-2.44-3.55-3.97-.93-1.53-1.4-3.43-1.4-5.7,0-1.95.36-3.64,1.07-5.07.72-1.43,1.7-2.62,2.95-3.55,1.25-.93,2.73-1.63,4.45-2.09,1.71-.46,3.56-.69,5.55-.69,2.43,0,4.68.17,6.77.51,2.09.34,3.97.87,5.64,1.58-.04.8-.11,1.71-.21,2.74-.1,1.03-.23,2.06-.39,3.07-.16,1.01-.33,1.97-.51,2.86-.18.9-.35,1.64-.51,2.24h-2.45l-2.76-8.17c-.48-.24-1.19-.46-2.13-.66-.94-.2-1.91-.3-2.91-.3-1.68,0-3.1.44-4.25,1.31-1.16.88-1.74,2.15-1.74,3.82,0,1.51.48,2.79,1.44,3.85.96,1.05,2.15,2.02,3.59,2.89,1.44.88,3,1.74,4.7,2.6,1.7.86,3.26,1.84,4.7,2.95,1.44,1.11,2.63,2.42,3.59,3.91.96,1.49,1.44,3.33,1.44,5.52,0,3.98-1.34,7.05-4.03,9.22-2.68,2.17-6.63,3.25-11.84,3.25-1.27,0-2.56-.08-3.85-.24-1.29-.16-2.52-.38-3.67-.66-1.15-.28-2.18-.58-3.07-.9-.89-.32-1.56-.66-2-1.01.04-.91.14-1.9.3-2.95.16-1.05.33-2.11.51-3.16.18-1.05.37-2.06.57-3.01.2-.95.4-1.79.6-2.51h2.45l2.45,8.77Z"/>
          <path class="cls-2" d="M327.44,149.08h-18.62v-2.27c1.59-.87,3.2-1.45,4.83-1.73v-33.77c-.8-.12-1.63-.34-2.51-.66-.88-.32-1.65-.68-2.33-1.07v-2.27h18.62v2.27c-.72.44-1.5.81-2.36,1.1-.86.3-1.68.51-2.48.63v33.77c.8.16,1.62.38,2.48.66.86.28,1.64.64,2.36,1.07v2.27Z"/>
        </g>
        <path class="cls-2" d="M469.41,18.93c0-1.83.31-3.46.92-4.88.62-1.42,1.45-2.61,2.49-3.59,1.05-.97,2.26-1.71,3.65-2.21,1.39-.5,2.86-.75,4.4-.75s3.1.25,4.49.75c1.39.5,2.6,1.24,3.63,2.21,1.03.97,1.85,2.17,2.45,3.59.6,1.42.9,3.04.9,4.88s-.31,3.5-.92,4.92c-.62,1.42-1.45,2.61-2.49,3.59-1.05.97-2.26,1.71-3.65,2.21-1.39.5-2.86.75-4.4.75s-3.1-.25-4.49-.75c-1.39-.5-2.6-1.24-3.63-2.21-1.03-.97-1.85-2.17-2.45-3.59-.6-1.42-.9-3.06-.9-4.92ZM471.43,18.93c0,1.49.25,2.83.75,4.02.5,1.19,1.18,2.21,2.04,3.05.86.85,1.86,1.49,3.01,1.93,1.15.44,2.36.67,3.65.67s2.6-.22,3.76-.67c1.16-.44,2.16-1.08,3.01-1.91.84-.83,1.5-1.84,1.98-3.03.47-1.19.71-2.54.71-4.06s-.25-2.83-.75-4.02c-.5-1.19-1.18-2.2-2.04-3.03-.86-.83-1.86-1.47-3.01-1.93-1.15-.46-2.36-.67-3.65-.64-1.37-.03-2.64.19-3.78.64-1.15.46-2.14,1.1-2.99,1.93-.85.83-1.5,1.84-1.98,3.03-.47,1.19-.71,2.53-.71,4.02ZM479.42,23.61c.37.03.68.08.92.15.24.07.47.15.67.24v1.03h-5.33v-1.03c.49-.17.99-.3,1.5-.39v-10.01c-.32-.03-.59-.08-.82-.15-.23-.07-.46-.18-.69-.32v-.95h1.63c.52,0,1.13-.03,1.85-.09.72-.06,1.3-.09,1.76-.09.63,0,1.24.06,1.83.19.59.13,1.11.34,1.57.64.46.3.82.68,1.07,1.14.26.46.39,1,.39,1.63,0,.89-.31,1.59-.92,2.11-.62.52-1.33.9-2.13,1.16.52.83,1.01,1.64,1.48,2.43.47.79,1.12,1.55,1.95,2.3l.99.52v.9h-2.15l-1.2-.47c-.72-.86-1.29-1.75-1.72-2.66-.43-.92-.8-1.79-1.12-2.62h-1.55v4.34ZM480.71,13.39c-.32,0-.57,0-.75.02-.19.01-.37.05-.54.11v4.51h1.37c1.72,0,2.55-.8,2.49-2.41-.03-.74-.28-1.3-.75-1.68-.47-.37-1.08-.56-1.83-.56Z"/>
      </g>
    </g>
  </g>
</svg>